<svg width="70" height="82" viewBox="0 0 70 82" fill="none" xmlns="http://www.w3.org/2000/svg">
<g clip-path="url(#clip0_689_12433)">
<mask id="mask0_689_12433" style="mask-type:luminance" maskUnits="userSpaceOnUse" x="0" y="18" width="45" height="46">
<path d="M44.5993 18.2114H0V63.7399H44.5993V18.2114Z" fill="white"/>
</mask>
<g mask="url(#mask0_689_12433)">
<path d="M17.918 38.7926C18.655 38.7026 19.3524 38.4093 19.9321 37.9455L35.6958 25.3341C38.6482 22.9721 36.978 18.2107 33.1969 18.2107H31.0617C30.1819 18.2107 29.3266 18.5008 28.6283 19.036L11.6403 32.0575C8.40729 34.5357 10.5149 39.6963 14.5585 39.2027L17.918 38.7926Z" fill="#9594EC"/>
<path d="M14.5462 42.7463C10.5033 42.2555 8.39855 47.4153 11.6313 49.8923L28.6285 62.9158C29.3267 63.4508 30.1817 63.7407 31.0613 63.7407H33.1986C36.9795 63.7407 38.6498 58.9797 35.6977 56.6175L19.9333 44.0031C19.3528 43.5386 18.6544 43.2451 17.9163 43.1555L14.5462 42.7463Z" fill="#9594EC"/>
</g>
<path d="M0 -3.8147e-05V5.81303C0 6.5764 0.150932 7.33235 0.444046 8.03773C0.73716 8.74268 1.16676 9.38354 1.70837 9.92369C2.25041 10.4634 2.89351 10.8915 3.60092 11.1836C4.30877 11.4757 5.06738 11.6261 5.8334 11.6261L29.1683 11.6261C36.9038 11.6261 44.3225 14.6883 49.7924 20.1391C55.2623 25.5899 58.3353 32.9824 58.3354 40.691C58.3354 44.5079 57.5809 48.2874 56.1152 51.8138C54.6494 55.3401 52.5009 58.5442 49.7925 61.2432C47.0841 63.9421 43.8688 66.083 40.33 67.5436C36.7914 69.0043 32.9986 69.756 29.1683 69.7559L5.83515 69.7559C5.06912 69.7557 4.31008 69.9059 3.60223 70.1979C2.89439 70.49 2.25085 70.9181 1.70924 71.4579C1.16721 71.9978 0.737595 72.6387 0.444046 73.3441C0.150932 74.0494 0 74.8055 0 75.569V81.3821L29.167 81.3821C34.5293 81.3821 39.8391 80.3296 44.7933 78.2847C49.7474 76.2397 54.2488 73.2424 58.0404 69.4639C61.8321 65.6854 64.8399 61.1996 66.8919 56.2628C68.9439 51.3259 70.0001 46.0346 70 40.691C70 29.8993 65.698 19.5492 58.0403 11.9182C50.3827 4.28718 39.9966 -3.8147e-05 29.167 -3.8147e-05L0 -3.8147e-05Z" fill="#9594EC"/>
</g>
<defs>
<clipPath id="clip0_689_12433">
<rect width="70" height="81.3821" fill="white"/>
</clipPath>
</defs>
</svg>
