<svg width="1441" height="462" viewBox="0 0 1441 462" fill="none" xmlns="http://www.w3.org/2000/svg">
<g clip-path="url(#clip0_746_421)">
<rect width="1441" height="424" transform="translate(0 38)" fill="#F1F5F8"/>
<path d="M1255.21 38H193.534H0V13.7452C0 13.7452 58.9155 5.66028 96.7671 5.66028C134.619 5.66028 155.697 12.2008 193.534 13.7452C271.175 16.9143 314.663 4.44754 392.321 4.44754C469.98 4.44754 513.589 13.7452 591.247 13.7452C668.905 13.7452 711.376 -4.04164 787.961 8.08576C864.545 20.2132 914.066 8.08576 991.724 8.08576C1043.71 8.08576 1070.1 13.7452 1122.08 13.7452C1174.07 13.7452 1203.31 12.5023 1255.21 8.08576C1290.9 8.08576 1310.92 0.0932572 1346.72 0.000824806C1383.6 -0.0943901 1404.13 8.08576 1441 8.08576V38H1255.21Z" fill="#F1F4F8"/>
</g>
<defs>
<clipPath id="clip0_746_421">
<rect width="1441" height="462" fill="white"/>
</clipPath>
</defs>
</svg>
